<svg width="48" height="48" fill="none" xmlns="http://www.w3.org/2000/svg">
  <path d="M24.2367 36.8922c9.3348 0 16.9021-7.5674 16.9021-16.9022 0-9.3348-7.5673-16.9021-16.9021-16.9021-9.3349 0-16.9022 7.5673-16.9022 16.9021 0 9.3348 7.5673 16.9022 16.9022 16.9022Z" fill="#20222C"/>
  <path d="M27.7337 24.8276c-.0195-.0194-.0583-.0388-.0389-.1165l-3.2056-12.6087c-1.1462 4.1576-1.9622 8.4317-3.2056 12.5698l-.0388-.0777s-2.1371-10.1219-2.3508-11.307c-.2137-1.1851.408-2.4673.408-2.4673h-6.2558c.7772.3886 1.1851 1.2628 1.4766 2.0011l3.9244 16.8827c.0971.7383-.4663 1.4377-1.0297 2.0594h6.2946c-.2331-.6023-.4468-1.1657-.4468-1.8651l1.3599-6.1586c.3886 1.8456.7771 3.6718 1.1657 5.5175.2331.8354.0777 1.7679-.272 2.5062h6.2557c-.3302-.5829-.8354-1.4183-.7188-2.3119l2.4479-14.9012c.3108-1.7096 1.1462-2.5838 1.9622-3.7495-2.0205.0194-3.9633.0388-6.178.0388.7771.7189.3497 1.8845.2914 2.7588l-1.8456 11.2292Zm12.1229-13.8131V6.313h-3.905C32.8043 3.632 28.7245 2 24.2561 2c-4.4684 0-8.5677 1.632-11.6955 4.313H8.6361v4.6821c-1.5348 2.6616-2.409 5.7117-2.409 8.995 0 3.2639.8742 6.3335 2.409 8.9757v4.6821h3.905c3.1473 2.681 7.2272 4.3129 11.6955 4.3129 4.4684 0 8.5483-1.6319 11.6956-4.3129h3.905v-4.6821c1.5153-2.6422 2.409-5.7118 2.3896-8.9757.0194-3.2638-.8548-6.3334-2.3702-8.9756ZM24.2561 35.2604c-8.4511 0-15.3092-6.8386-15.3092-15.2897 0-8.4317 6.8581-15.2897 15.3092-15.2897s15.3091 6.8386 15.3091 15.2897c-.0195 8.4511-6.858 15.2897-15.3091 15.2897Z" fill="#00AEFF"/>
</svg>
